<svg width="134" height="134" viewBox="0 0 134 134" fill="none" xmlns="http://www.w3.org/2000/svg">
<circle cx="3.19048" cy="3.19048" r="3.19048" fill="#CECECE"/>
<circle cx="35.0953" cy="3.19048" r="3.19048" fill="#CECECE"/>
<circle cx="67" cy="3.19048" r="3.19048" fill="#CECECE"/>
<circle cx="98.9047" cy="3.19048" r="3.19048" fill="#CECECE"/>
<circle cx="130.809" cy="3.19048" r="3.19048" fill="#CECECE"/>
<circle cx="3.19048" cy="35.0952" r="3.19048" fill="#CECECE"/>
<circle cx="35.0953" cy="35.0952" r="3.19048" fill="#CECECE"/>
<circle cx="67" cy="35.0952" r="3.19048" fill="#CECECE"/>
<circle cx="98.9047" cy="35.0952" r="3.19048" fill="#CECECE"/>
<circle cx="130.809" cy="35.0952" r="3.19048" fill="#CECECE"/>
<circle cx="3.19048" cy="67" r="3.19048" fill="#CECECE"/>
<circle cx="35.0953" cy="67" r="3.19048" fill="#CECECE"/>
<circle cx="67" cy="67" r="3.19048" fill="#CECECE"/>
<circle cx="98.9047" cy="67" r="3.19048" fill="#CECECE"/>
<circle cx="130.809" cy="67" r="3.19048" fill="#CECECE"/>
<circle cx="3.19048" cy="98.9048" r="3.19048" fill="#CECECE"/>
<circle cx="35.0953" cy="98.9048" r="3.19048" fill="#CECECE"/>
<circle cx="67" cy="98.9048" r="3.19048" fill="#CECECE"/>
<circle cx="98.9047" cy="98.9048" r="3.19048" fill="#CECECE"/>
<circle cx="130.809" cy="98.9048" r="3.19048" fill="#CECECE"/>
<circle cx="3.19048" cy="130.809" r="3.19048" fill="#CECECE"/>
<circle cx="35.0953" cy="130.809" r="3.19048" fill="#CECECE"/>
<circle cx="67" cy="130.809" r="3.19048" fill="#CECECE"/>
<circle cx="98.9047" cy="130.809" r="3.19048" fill="#CECECE"/>
<circle cx="130.809" cy="130.809" r="3.19048" fill="#CECECE"/>
</svg>
