<svg width="32" height="32" viewBox="0 0 32 32" fill="none" xmlns="http://www.w3.org/2000/svg">
<path d="M16 4C22.6276 4 28 9.3724 28 16C28 22.6276 22.6276 28 16 28C13.8793 28.0034 11.796 27.4422 9.96401 26.374L4.00482 28L5.62722 22.0384C4.55813 20.2058 3.99647 18.1216 4.00002 16C4.00002 9.3724 9.37241 4 16 4ZM11.9104 10.36L11.6704 10.3696C11.515 10.3791 11.3632 10.4199 11.224 10.4896C11.0938 10.5633 10.975 10.6555 10.8712 10.7632C10.7272 10.8988 10.6456 11.0164 10.558 11.1304C10.1142 11.7075 9.87518 12.416 9.87881 13.144C9.88121 13.732 10.0348 14.3044 10.2748 14.8396C10.7656 15.922 11.5732 17.068 12.6388 18.13C12.8956 18.3856 13.1476 18.6424 13.4188 18.8812C14.7429 20.0469 16.3207 20.8876 18.0268 21.3364L18.7084 21.4408C18.9304 21.4528 19.1524 21.436 19.3756 21.4252C19.7251 21.4071 20.0663 21.3125 20.3752 21.148C20.5324 21.067 20.6857 20.979 20.8348 20.884C20.8348 20.884 20.8864 20.8504 20.9848 20.776C21.1468 20.656 21.2464 20.5708 21.3808 20.4304C21.4804 20.3272 21.5668 20.206 21.6328 20.068C21.7264 19.8724 21.82 19.4992 21.8584 19.1884C21.8872 18.9508 21.8788 18.8212 21.8752 18.7408C21.8704 18.6124 21.7636 18.4792 21.6472 18.4228L20.9488 18.1096C20.9488 18.1096 19.9048 17.6548 19.2664 17.3644C19.1996 17.3352 19.128 17.3185 19.0552 17.3152C18.9731 17.3068 18.8901 17.316 18.8119 17.3423C18.7337 17.3686 18.662 17.4113 18.6016 17.4676C18.5956 17.4652 18.5152 17.5336 17.6476 18.5848C17.5978 18.6517 17.5292 18.7023 17.4506 18.7301C17.3719 18.7578 17.2868 18.7616 17.206 18.7408C17.1278 18.7198 17.0512 18.6934 16.9768 18.6616C16.828 18.5992 16.7764 18.5752 16.6744 18.532C15.9857 18.2314 15.348 17.8254 14.7844 17.3284C14.6332 17.1964 14.4928 17.0524 14.3488 16.9132C13.8767 16.4611 13.4653 15.9496 13.1248 15.3916L13.054 15.2776C13.0032 15.201 12.962 15.1184 12.9316 15.0316C12.886 14.8552 13.0048 14.7136 13.0048 14.7136C13.0048 14.7136 13.2964 14.3944 13.432 14.2216C13.564 14.0536 13.6756 13.8904 13.7476 13.774C13.8892 13.546 13.9336 13.312 13.8592 13.1308C13.5232 12.31 13.1752 11.4928 12.8176 10.6816C12.7468 10.5208 12.5368 10.4056 12.346 10.3828C12.2812 10.3756 12.2164 10.3684 12.1516 10.3636C11.9905 10.3556 11.829 10.3572 11.668 10.3684L11.9092 10.3588L11.9104 10.36Z" fill="#EFEFEF"/>
</svg>
