<svg width="70" height="96" viewBox="0 0 70 96" fill="none" xmlns="http://www.w3.org/2000/svg">
<path d="M68.9204 18.8186L62.74 88.0556L34.9585 95.7574L7.25358 88.0662L1.07953 18.8186H68.9204Z" fill="#E44D26"/>
<path d="M35 89.8703L57.4488 83.6468L62.7302 24.4805H35V89.8703Z" fill="#F16529"/>
<path d="M22.9853 41.4666H35V32.9736H13.7036L13.9068 35.2521L15.9943 58.6564H35V50.1635H23.7616L22.9853 41.4666ZM24.8995 62.903H16.3738L17.5636 76.2383L34.9609 81.0675L35 81.0569V72.2206L34.9627 72.2305L25.5042 69.6765L24.8995 62.903Z" fill="#EBEBEB"/>
<path d="M7.39139 0H11.7074V4.26415H15.6556V0H19.9719V12.9129H15.6559V8.58894H11.7077V12.9129H7.39165L7.39139 0ZM25.6473 4.28224H21.8483V0H33.7656V4.28224H29.9642V12.9129H25.6481V4.28224H25.6473ZM35.6569 0H40.1572L42.9255 4.53726L45.6911 0H50.1933V12.9129H45.8948V6.51258L42.9255 11.1038H42.851L39.8798 6.51258V12.9129H35.6569V0ZM52.3412 0H56.6585V8.64479H62.7281V12.9129H52.3409V0H52.3412Z" fill="#EBEBEB"/>
<path d="M34.9708 58.6564H45.4289L44.4429 69.6712L34.9705 72.2278V81.0635L52.3816 76.2383L52.5093 74.8033L54.5053 52.4441L54.7125 50.1635H34.9708V58.6564ZM34.9708 41.4458V41.4666H55.4853L55.6555 39.5577L56.0427 35.2521L56.2456 32.9736H34.9708V41.4458Z" fill="white"/>
</svg>
