<svg width="256" height="361" viewBox="0 0 256 361" fill="none" xmlns="http://www.w3.org/2000/svg">
<g clip-path="url(#clip0_1_6)">
<path d="M255.555 70.766L232.314 331.126L127.844 360.088L23.662 331.166L0.445 70.766H255.555Z" fill="#E4D126"/>
<path d="M128 337.95L212.417 314.547L232.277 92.057H128V337.95Z" fill="#D5F129"/>
<path d="M39.001 259.201L58.6194 247.818C62.4049 254.252 65.8479 259.696 74.1069 259.696C82.0234 259.696 87.0156 256.727 87.0156 245.179V166.642H111.108V245.505C111.108 269.429 96.4803 280.318 75.1394 280.318C55.8665 280.318 44.6792 270.749 39 259.199M124.194 256.726L143.81 245.837C148.974 253.922 155.686 259.862 167.559 259.862C177.543 259.862 183.908 255.077 183.908 248.477C183.908 240.558 177.369 237.752 166.355 233.134L160.333 230.657C142.951 223.564 131.421 214.654 131.421 195.845C131.421 178.521 145.188 165.321 166.7 165.321C182.016 165.321 193.03 170.437 200.946 183.801L182.187 195.351C178.056 188.257 173.583 185.452 166.699 185.452C159.643 185.452 155.168 189.742 155.168 195.351C155.168 202.28 159.643 205.087 169.968 209.376L175.991 211.851C196.47 220.266 208 228.845 208 248.147C208 268.938 190.963 280.321 168.075 280.321C145.704 280.321 131.248 270.092 124.193 256.727" fill="#EBEBEB"/>
<path d="M87.5 54C83.75 54 80.561 52.686 77.933 50.058C75.305 47.43 73.994 44.244 74 40.5V31.5H87.5V40.5H101V3.1142e-05H114.5V40.5C114.5 44.25 113.186 47.439 110.558 50.067C107.93 52.695 104.744 54.006 101 54H87.5ZM137 54C134.45 54 132.311 53.136 130.583 51.408C128.855 49.68 127.994 47.544 128 45V36H141.5V40.5H159.5V31.5H137C134.45 31.5 132.311 30.636 130.583 28.908C128.855 27.18 127.994 25.044 128 22.5V9.00003C128 6.45003 128.864 4.31103 130.592 2.58303C132.32 0.855028 134.456 -0.00596886 137 3.1142e-05H164C166.55 3.1142e-05 168.689 0.864032 170.417 2.59203C172.145 4.32003 173.006 6.45603 173 9.00003V18H159.5V13.5H141.5V22.5H164C166.55 22.5 168.689 23.364 170.417 25.092C172.145 26.82 173.006 28.956 173 31.5V45C173 47.55 172.136 49.689 170.408 51.417C168.68 53.145 166.544 54.006 164 54H137Z" fill="#F8F8F8"/>
</g>
<defs>
<clipPath id="clip0_1_6">
<rect width="256" height="361" fill="white"/>
</clipPath>
</defs>
</svg>
