<svg width="70" height="96" viewBox="0 0 70 96" fill="none" xmlns="http://www.w3.org/2000/svg">
<path d="M34.9585 95.7574L7.25364 88.0662L1.07959 18.8186H68.9205L62.74 88.0556L34.9585 95.7574Z" fill="#264DE4"/>
<path d="M57.4488 83.6468L62.7302 24.4805H35V89.8703L57.4488 83.6468Z" fill="#2965F1"/>
<path d="M15.2334 50.1635L15.9944 58.6564H35V50.1635H15.2334ZM13.7037 32.9736L14.4757 41.4666H35V32.9736H13.7037ZM35 72.2206L34.9628 72.2305L25.5043 69.6765L24.8996 62.903H16.3739L17.5637 76.2383L34.961 81.0675L35 81.0569V72.2206Z" fill="#EBEBEB"/>
<path d="M17.0457 0H27.3317V4.30165H21.3473V8.6033H27.3323V12.9047H17.0457V0ZM29.3892 0H39.6756V3.74054H33.6909V4.4886H39.6756V13.0919H29.3895V9.16388H35.3742V8.41582H29.389L29.3892 0ZM41.7331 0H52.0194V3.74054H46.0347V4.4886H52.0194V13.0919H41.7331V9.16388H47.7178V8.41582H41.7333V0H41.7331Z" fill="#FAFAFA"/>
<path d="M54.7125 50.1635L56.2456 32.9736H34.9708V41.4666H46.9381L46.1653 50.1635H34.9708V58.6564H45.4289L44.4429 69.6712L34.9705 72.2278V81.0635L52.3816 76.2383L52.5093 74.8033L54.5053 52.4441L54.7125 50.1635Z" fill="white"/>
</svg>
