<svg width="432" height="432" viewBox="0 0 432 432" fill="none" xmlns="http://www.w3.org/2000/svg">
<circle cx="216" cy="216" r="216" fill="#80CE87"/>
<mask id="mask0_13_207" style="mask-type:alpha" maskUnits="userSpaceOnUse" x="0" y="0" width="432" height="432">
<circle cx="216" cy="216" r="216" fill="#80CE87"/>
</mask>
<g mask="url(#mask0_13_207)">
<path fill-rule="evenodd" clip-rule="evenodd" d="M246.981 201.296C251.037 210.221 255.142 222.736 258 239.5C264 274.7 268.5 306.167 270 317.5L201.5 384L93.5 371.5C95.3756 326.328 100.769 235.276 108.031 210.93C109.125 174.885 138.689 146 175 146H181C214.01 146 241.445 169.873 246.981 201.296Z" fill="#46200A"/>
<path d="M117.5 231V209.5C115.333 211.167 111 215.6 111 220C111 224.4 115.333 229.167 117.5 231Z" fill="#F1BA8A"/>
<path d="M240 234V207.5C243.833 207.5 251.5 209.5 251.5 217.5C251.5 225.5 243.833 231.833 240 234Z" fill="#F1BA8A"/>
<path d="M179 171C157 166.2 139.833 170 134 172.5C126 180.5 124 213.167 124 228.5C133 236 143 244.5 148.5 248.5C152.9 234.9 164 231.833 169 232H191C203.8 232 207.667 241.333 208 246C215 245.667 224.5 237 233.5 229.5C236.5 214 232.5 186 232 183C231.6 180.6 229.167 180 228 180C229 181.833 225.8 183.5 224.5 183C218 180.5 206.5 177 179 171Z" fill="#F1BA8A"/>
<path d="M145 188.5C137 189.7 131.667 196.333 130 199.5C140 193 158 198 161 198.5C163.4 198.9 165.333 193 166 190C162.333 189 153 187.3 145 188.5Z" fill="#46200A"/>
<path d="M204 188.5C202.4 189.7 196 190 193 190C193 194.8 196.667 197.333 198.5 198C199.5 197.833 203.5 197.3 211.5 196.5C219.5 195.7 225.5 198.167 227.5 199.5C227.167 197.333 225.5 192.4 221.5 190C216.5 187 206 187 204 188.5Z" fill="#46200A"/>
<path d="M179.5 226.5V215.5L184 223.5L179.5 226.5Z" fill="#BF6631"/>
<path d="M134.5 207.5C139.667 205.5 151.3 202.7 156.5 207.5C147.5 211.5 144 209.5 134.5 207.5Z" fill="#101310"/>
<path d="M221 206.309C215.833 208.309 204.2 211.109 199 206.309C208 202.309 211.5 204.309 221 206.309Z" fill="#101310"/>
<path d="M179.5 241C179.1 244.2 168.667 246 163.5 246.5C163.5 265.3 168.833 277 171.5 280.5C174.5 281.333 181.6 282.5 186 280.5C190.4 278.5 193.5 263.667 194.5 256.5L195.5 245C190.5 243.5 184 246.5 179.5 241Z" fill="#F1BA8A"/>
<path d="M190.5 248H168.5L178.5 251L190.5 248Z" fill="#101310"/>
<path d="M123 320.5H125.5L193 349.5L253 298.5H271.5L374.5 381L283.5 444H137.5L74 381L123 320.5Z" fill="#101310"/>
<path d="M174.5 327.5C148.1 328.7 130.5 314 125 306.5L127.5 336L173 378C200.667 357.5 246 314 255 306.5C254.2 298.5 247.333 254.833 244 234L241.5 236C243.5 243.833 247.2 264.3 246 283.5C244.8 302.7 228.5 316.833 220.5 321.5C216.167 323 200.9 326.3 174.5 327.5Z" fill="#F1BA8A"/>
</g>
</svg>
