<svg width="250" height="251" viewBox="0 0 250 251" fill="none" xmlns="http://www.w3.org/2000/svg">
<path d="M27.8571 247H19.8571V255H27.8571V247ZM27.8571 0.571411V-7.42859H19.8571V0.571411H27.8571ZM90 0.571411H98V-7.42859H90V0.571411ZM90 83.4286H82V104.336L95.9566 88.7689L90 83.4286ZM164.286 0.571411V-7.42859H160.714L158.329 -4.76895L164.286 0.571411ZM222.857 0.571411L230.096 -2.83497L227.934 -7.42859H222.857V0.571411ZM228.571 12.7143L234.53 18.0528L238.067 14.1046L235.81 9.3079L228.571 12.7143ZM148.571 102L142.613 96.6615L138.46 101.297L141.932 106.462L148.571 102ZM237.857 234.857L245.096 238.264L247.027 234.159L244.497 230.395L237.857 234.857ZM232.143 247V255H237.22L239.381 250.406L232.143 247ZM175 247L168.336 251.427L170.71 255H175V247ZM108.571 147L115.235 142.573L109.721 134.273L102.809 141.451L108.571 147ZM90 166.286L84.2374 160.737L82 163.06V166.286H90ZM90 247V255H98V247H90ZM35.8571 247V0.571411H19.8571V247H35.8571ZM27.8571 8.57141H90V-7.42859H27.8571V8.57141ZM82 0.571411V83.4286H98V0.571411H82ZM95.9566 88.7689L170.242 5.91177L158.329 -4.76895L84.0434 78.0882L95.9566 88.7689ZM164.286 8.57141H222.857V-7.42859H164.286V8.57141ZM215.619 3.97779L221.333 16.1207L235.81 9.3079L230.096 -2.83497L215.619 3.97779ZM222.613 7.37574L142.613 96.6615L154.53 107.339L234.53 18.0528L222.613 7.37574ZM141.932 106.462L231.217 239.319L244.497 230.395L155.211 97.5377L141.932 106.462ZM230.619 231.451L224.904 243.594L239.381 250.406L245.096 238.264L230.619 231.451ZM232.143 239H175V255H232.143V239ZM181.664 242.573L115.235 142.573L101.908 151.427L168.336 251.427L181.664 242.573ZM102.809 141.451L84.2374 160.737L95.7626 171.835L114.334 152.549L102.809 141.451ZM82 166.286V247H98V166.286H82ZM90 239H27.8571V255H90V239Z" fill="#CECECE"/>
</svg>
