<svg width="211" height="247" viewBox="0 0 211 247" fill="none" xmlns="http://www.w3.org/2000/svg">
<path d="M0.357143 247H-7.64286V255H0.357143V247ZM0.357143 0.571411V-7.42859H-7.64286V0.571411H0.357143ZM62.5 0.571411H70.5V-7.42859H62.5V0.571411ZM62.5 83.4286H54.5V104.336L68.4566 88.7689L62.5 83.4286ZM136.786 0.571411V-7.42859H133.214L130.829 -4.76895L136.786 0.571411ZM195.357 0.571411L202.596 -2.83497L200.434 -7.42859H195.357V0.571411ZM201.071 12.7143L207.03 18.0528L210.567 14.1046L208.31 9.3079L201.071 12.7143ZM121.071 102L115.113 96.6615L110.96 101.297L114.432 106.462L121.071 102ZM210.357 234.857L217.596 238.264L219.527 234.159L216.997 230.395L210.357 234.857ZM204.643 247V255H209.72L211.881 250.406L204.643 247ZM147.5 247L140.836 251.427L143.21 255H147.5V247ZM81.0714 147L87.7352 142.573L82.2211 134.273L75.3089 141.451L81.0714 147ZM62.5 166.286L56.7374 160.737L54.5 163.06V166.286H62.5ZM62.5 247V255H70.5V247H62.5ZM8.35714 247V0.571411H-7.64286V247H8.35714ZM0.357143 8.57141H62.5V-7.42859H0.357143V8.57141ZM54.5 0.571411V83.4286H70.5V0.571411H54.5ZM68.4566 88.7689L142.742 5.91177L130.829 -4.76895L56.5434 78.0882L68.4566 88.7689ZM136.786 8.57141H195.357V-7.42859H136.786V8.57141ZM188.119 3.97779L193.833 16.1207L208.31 9.3079L202.596 -2.83497L188.119 3.97779ZM195.113 7.37574L115.113 96.6615L127.03 107.339L207.03 18.0528L195.113 7.37574ZM114.432 106.462L203.717 239.319L216.997 230.395L127.711 97.5377L114.432 106.462ZM203.119 231.451L197.404 243.594L211.881 250.406L217.596 238.264L203.119 231.451ZM204.643 239H147.5V255H204.643V239ZM154.164 242.573L87.7352 142.573L74.4077 151.427L140.836 251.427L154.164 242.573ZM75.3089 141.451L56.7374 160.737L68.2626 171.835L86.834 152.549L75.3089 141.451ZM54.5 166.286V247H70.5V166.286H54.5ZM62.5 239H0.357143V255H62.5V239Z" fill="#204829"/>
</svg>
