<svg width="28" height="28" viewBox="0 0 28 28" fill="none" xmlns="http://www.w3.org/2000/svg">
<path d="M3.12 28H2.12V29H3.12V28ZM3.12 0.399998V-0.600002H2.12V0.399998H3.12ZM10.08 0.399998H11.08V-0.600002H10.08V0.399998ZM10.08 9.68H9.08V12.2934L10.8246 10.3475L10.08 9.68ZM18.4 0.399998V-0.600002H17.9535L17.6554 -0.267547L18.4 0.399998ZM24.96 0.399998L25.8648 -0.0257996L25.5946 -0.600002H24.96V0.399998ZM25.6 1.76L26.3448 2.42732L26.787 1.93379L26.5048 1.3342L25.6 1.76ZM16.64 11.76L15.8952 11.0927L15.3761 11.6721L15.81 12.3178L16.64 11.76ZM26.64 26.64L27.5448 27.0658L27.7862 26.5528L27.47 26.0822L26.64 26.64ZM26 28V29H26.6346L26.9048 28.4258L26 28ZM19.6 28L18.767 28.5533L19.0638 29H19.6V28ZM12.16 16.8L12.993 16.2467L12.3037 15.2091L11.4397 16.1064L12.16 16.8ZM10.08 18.96L9.35968 18.2664L9.08 18.5568V18.96H10.08ZM10.08 28V29H11.08V28H10.08ZM4.12 28V0.399998H2.12V28H4.12ZM3.12 1.4H10.08V-0.600002H3.12V1.4ZM9.08 0.399998V9.68H11.08V0.399998H9.08ZM10.8246 10.3475L19.1446 1.06754L17.6554 -0.267547L9.33543 9.01245L10.8246 10.3475ZM18.4 1.4H24.96V-0.600002H18.4V1.4ZM24.0552 0.825795L24.6952 2.1858L26.5048 1.3342L25.8648 -0.0257996L24.0552 0.825795ZM24.8552 1.09268L15.8952 11.0927L17.3848 12.4273L26.3448 2.42732L24.8552 1.09268ZM15.81 12.3178L25.81 27.1978L27.47 26.0822L17.47 11.2022L15.81 12.3178ZM25.7352 26.2142L25.0952 27.5742L26.9048 28.4258L27.5448 27.0658L25.7352 26.2142ZM26 27H19.6V29H26V27ZM20.433 27.4467L12.993 16.2467L11.327 17.3533L18.767 28.5533L20.433 27.4467ZM11.4397 16.1064L9.35968 18.2664L10.8003 19.6536L12.8803 17.4936L11.4397 16.1064ZM9.08 18.96V28H11.08V18.96H9.08ZM10.08 27H3.12V29H10.08V27Z" fill="#80CE87"/>
</svg>
