<svg width="320" height="41" viewBox="0 0 320 41" fill="none" xmlns="http://www.w3.org/2000/svg">
<path d="M15.9732 32.9283L27.9732 20.9283L15.9732 8.92828L13 11.9015L22.0268 20.9283L13 29.9551L15.9732 32.9283Z" fill="#22B455"/>
<path d="M65.168 25.8322C65.168 27.0909 64.8533 28.2109 64.224 29.1922C63.5947 30.1629 62.6827 30.9256 61.488 31.4802C60.2933 32.0242 58.8373 32.2962 57.12 32.2962C55.5093 32.2962 54.048 32.0509 52.736 31.5602C51.4347 31.0696 50.32 30.3762 49.392 29.4802L51.04 27.6242C51.808 28.3389 52.688 28.9096 53.68 29.3362C54.672 29.7522 55.8347 29.9602 57.168 29.9602C58.064 29.9602 58.9013 29.8162 59.68 29.5282C60.4587 29.2296 61.088 28.7816 61.568 28.1842C62.048 27.5762 62.288 26.8082 62.288 25.8802C62.288 25.1656 62.1493 24.5576 61.872 24.0562C61.5947 23.5549 61.104 23.1122 60.4 22.7282C59.696 22.3336 58.7147 21.9496 57.456 21.5762C56.0053 21.1496 54.7467 20.6696 53.68 20.1362C52.624 19.5922 51.8027 18.9256 51.216 18.1362C50.64 17.3469 50.352 16.3709 50.352 15.2082C50.352 14.1096 50.656 13.1336 51.264 12.2802C51.872 11.4269 52.7093 10.7602 53.776 10.2802C54.8533 9.78956 56.0907 9.54422 57.488 9.54422C59.0133 9.54422 60.336 9.76289 61.456 10.2002C62.5867 10.6269 63.6107 11.2456 64.528 12.0562L62.896 13.8642C62.1067 13.1602 61.2587 12.6536 60.352 12.3442C59.4453 12.0242 58.5227 11.8642 57.584 11.8642C56.784 11.8642 56.048 11.9869 55.376 12.2322C54.7147 12.4669 54.1813 12.8242 53.776 13.3042C53.3813 13.7736 53.184 14.3762 53.184 15.1122C53.184 15.7416 53.3547 16.2856 53.696 16.7442C54.0373 17.2029 54.6133 17.6242 55.424 18.0082C56.2347 18.3816 57.3387 18.7762 58.736 19.1922C59.8773 19.5229 60.9333 19.9389 61.904 20.4402C62.8853 20.9309 63.6747 21.6029 64.272 22.4562C64.8693 23.2989 65.168 24.4242 65.168 25.8322ZM76.8195 14.7282C78.4088 14.7282 79.7368 15.0909 80.8035 15.8162C81.8808 16.5309 82.6862 17.5442 83.2195 18.8562C83.7635 20.1682 84.0355 21.7149 84.0355 23.4962C84.0355 25.2136 83.7582 26.7336 83.2035 28.0562C82.6488 29.3789 81.8328 30.4189 80.7555 31.1762C79.6888 31.9229 78.3662 32.2962 76.7875 32.2962C75.2088 32.2962 73.8808 31.9336 72.8035 31.2082C71.7262 30.4829 70.9102 29.4642 70.3555 28.1522C69.8115 26.8296 69.5395 25.2882 69.5395 23.5282C69.5395 21.7896 69.8168 20.2589 70.3715 18.9362C70.9262 17.6136 71.7422 16.5842 72.8195 15.8482C73.9075 15.1016 75.2408 14.7282 76.8195 14.7282ZM76.8195 16.9202C75.3688 16.9202 74.2702 17.4589 73.5235 18.5362C72.7875 19.6029 72.4195 21.2669 72.4195 23.5282C72.4195 25.7469 72.7822 27.3949 73.5075 28.4722C74.2435 29.5496 75.3368 30.0882 76.7875 30.0882C78.2382 30.0882 79.3262 29.5496 80.0515 28.4722C80.7875 27.3949 81.1555 25.7362 81.1555 23.4962C81.1555 21.2562 80.7928 19.6029 80.0675 18.5362C79.3422 17.4589 78.2595 16.9202 76.8195 16.9202ZM92.279 17.2722C92.8977 16.4616 93.607 15.8376 94.407 15.4002C95.2177 14.9522 96.1083 14.7282 97.079 14.7282C98.583 14.7282 99.799 15.0909 100.727 15.8162C101.655 16.5416 102.332 17.5656 102.759 18.8882C103.186 20.2002 103.399 21.7362 103.399 23.4962C103.399 25.1922 103.143 26.7069 102.631 28.0402C102.119 29.3629 101.367 30.4029 100.375 31.1602C99.3937 31.9176 98.1777 32.2962 96.727 32.2962C94.775 32.2962 93.2443 31.5922 92.135 30.1842L91.943 31.9282H89.591V8.29622L92.279 7.96022V17.2722ZM96.087 30.1202C97.495 30.1202 98.5777 29.5762 99.335 28.4882C100.092 27.4002 100.471 25.7309 100.471 23.4802C100.471 22.0082 100.322 20.7869 100.023 19.8162C99.7243 18.8349 99.2763 18.1042 98.679 17.6242C98.0923 17.1336 97.367 16.8882 96.503 16.8882C95.5643 16.8882 94.7377 17.1709 94.023 17.7362C93.319 18.2909 92.7377 18.9096 92.279 19.5922V27.9442C92.7163 28.6056 93.2657 29.1336 93.927 29.5282C94.599 29.9229 95.319 30.1202 96.087 30.1202ZM108.939 31.9282V29.8642H111.563V17.1442H108.939V15.0802H113.611L114.107 19.0642C114.757 17.6776 115.547 16.6056 116.475 15.8482C117.403 15.0909 118.629 14.7122 120.155 14.7122C120.624 14.7122 121.04 14.7496 121.403 14.8242C121.776 14.8882 122.155 14.9736 122.539 15.0802L121.755 17.4802C121.403 17.3842 121.083 17.3149 120.795 17.2722C120.507 17.2189 120.176 17.1922 119.803 17.1922C118.512 17.1922 117.403 17.6509 116.475 18.5682C115.547 19.4856 114.805 20.8722 114.251 22.7282V29.8642H117.675V31.9282H108.939ZM119.947 20.7762V17.1122L120.219 15.0802H122.539L122.155 20.7762H119.947ZM130.078 24.4562C130.131 25.7576 130.382 26.8242 130.83 27.6562C131.278 28.4776 131.87 29.0856 132.606 29.4802C133.342 29.8642 134.142 30.0562 135.006 30.0562C135.87 30.0562 136.649 29.9282 137.342 29.6722C138.046 29.4162 138.766 29.0376 139.502 28.5362L140.766 30.3122C139.977 30.9309 139.075 31.4162 138.062 31.7682C137.059 32.1202 136.03 32.2962 134.974 32.2962C133.342 32.2962 131.95 31.9282 130.798 31.1922C129.646 30.4562 128.766 29.4322 128.158 28.1202C127.561 26.7976 127.262 25.2669 127.262 23.5282C127.262 21.8216 127.566 20.3069 128.174 18.9842C128.782 17.6616 129.635 16.6216 130.734 15.8642C131.833 15.1069 133.129 14.7282 134.622 14.7282C136.041 14.7282 137.262 15.0642 138.286 15.7362C139.31 16.3976 140.094 17.3469 140.638 18.5842C141.193 19.8109 141.47 21.2776 141.47 22.9842C141.47 23.2722 141.465 23.5442 141.454 23.8002C141.443 24.0456 141.427 24.2642 141.406 24.4562H130.078ZM134.654 16.9362C133.406 16.9362 132.361 17.3789 131.518 18.2642C130.686 19.1496 130.211 20.5202 130.094 22.3762H138.878C138.846 20.5736 138.451 19.2189 137.694 18.3122C136.937 17.3949 135.923 16.9362 134.654 16.9362Z" fill="#CECECE"/>
<rect x="152" y="20.4282" width="144" height="1" fill="#80CE87"/>
</svg>
