<svg width="320" height="41" viewBox="0 0 320 41" fill="none" xmlns="http://www.w3.org/2000/svg">
<path d="M15.9732 32.9282L27.9732 20.9282L15.9732 8.92822L13 11.9014L22.0268 20.9282L13 29.955L15.9732 32.9282Z" fill="#22B455"/>
<path d="M59.456 9.54422C60.896 9.54422 62.1013 9.72556 63.072 10.0882C64.0427 10.4509 64.9653 10.9842 65.84 11.6882L64.288 13.4962C63.5947 12.9096 62.8587 12.4936 62.08 12.2482C61.312 11.9922 60.5067 11.8642 59.664 11.8642C58.4587 11.8642 57.344 12.1522 56.32 12.7282C55.296 13.2936 54.4693 14.2376 53.84 15.5602C53.2213 16.8722 52.912 18.6536 52.912 20.9042C52.912 23.0909 53.2053 24.8456 53.792 26.1682C54.3893 27.4909 55.1947 28.4456 56.208 29.0322C57.2213 29.6189 58.352 29.9122 59.6 29.9122C60.8373 29.9122 61.8507 29.7256 62.64 29.3522C63.44 28.9789 64.1333 28.5522 64.72 28.0722L66.16 29.8962C65.488 30.5469 64.6133 31.1122 63.536 31.5922C62.4587 32.0616 61.136 32.2962 59.568 32.2962C57.7867 32.2962 56.1707 31.8589 54.72 30.9842C53.28 30.1096 52.1387 28.8296 51.296 27.1442C50.4533 25.4482 50.032 23.3682 50.032 20.9042C50.032 18.4296 50.4587 16.3496 51.312 14.6642C52.176 12.9789 53.3227 11.7042 54.752 10.8402C56.192 9.97622 57.76 9.54422 59.456 9.54422ZM76.8195 14.7282C78.4088 14.7282 79.7368 15.0909 80.8035 15.8162C81.8808 16.5309 82.6862 17.5442 83.2195 18.8562C83.7635 20.1682 84.0355 21.7149 84.0355 23.4962C84.0355 25.2136 83.7582 26.7336 83.2035 28.0562C82.6488 29.3789 81.8328 30.4189 80.7555 31.1762C79.6888 31.9229 78.3662 32.2962 76.7875 32.2962C75.2088 32.2962 73.8808 31.9336 72.8035 31.2082C71.7262 30.4829 70.9102 29.4642 70.3555 28.1522C69.8115 26.8296 69.5395 25.2882 69.5395 23.5282C69.5395 21.7896 69.8168 20.2589 70.3715 18.9362C70.9262 17.6136 71.7422 16.5842 72.8195 15.8482C73.9075 15.1016 75.2408 14.7282 76.8195 14.7282ZM76.8195 16.9202C75.3688 16.9202 74.2702 17.4589 73.5235 18.5362C72.7875 19.6029 72.4195 21.2669 72.4195 23.5282C72.4195 25.7469 72.7822 27.3949 73.5075 28.4722C74.2435 29.5496 75.3368 30.0882 76.7875 30.0882C78.2382 30.0882 79.3262 29.5496 80.0515 28.4722C80.7875 27.3949 81.1555 25.7362 81.1555 23.4962C81.1555 21.2562 80.7928 19.6029 80.0675 18.5362C79.3422 17.4589 78.2595 16.9202 76.8195 16.9202ZM89.591 31.9282V15.0802H91.879L92.087 17.4162C92.7697 16.5522 93.623 15.8909 94.647 15.4322C95.6817 14.9629 96.6843 14.7282 97.655 14.7282C99.3083 14.7282 100.508 15.1656 101.255 16.0402C102.012 16.9149 102.391 18.1309 102.391 19.6882V31.9282H99.703V21.6722C99.703 20.5202 99.639 19.5922 99.511 18.8882C99.383 18.1736 99.1163 17.6562 98.711 17.3362C98.3057 17.0056 97.6763 16.8402 96.823 16.8402C96.1617 16.8402 95.5377 16.9842 94.951 17.2722C94.375 17.5602 93.8577 17.9229 93.399 18.3602C92.951 18.7869 92.5777 19.2189 92.279 19.6562V31.9282H89.591ZM122.155 31.0802C121.579 31.4642 120.88 31.7629 120.059 31.9762C119.237 32.1896 118.432 32.2962 117.643 32.2962C115.829 32.2962 114.432 31.8216 113.451 30.8722C112.469 29.9229 111.979 28.7016 111.979 27.2082V17.1602H108.107V15.0802H111.979V11.2562L114.667 10.9362V15.0802H120.491L120.171 17.1602H114.667V27.1762C114.667 28.1149 114.912 28.8296 115.403 29.3202C115.904 29.8109 116.731 30.0562 117.883 30.0562C118.512 30.0562 119.093 29.9816 119.627 29.8322C120.16 29.6829 120.656 29.4909 121.115 29.2562L122.155 31.0802ZM140.03 28.2482C140.03 28.9202 140.142 29.4109 140.366 29.7202C140.59 30.0296 140.937 30.2589 141.406 30.4082L140.75 32.2962C140.025 32.2002 139.39 31.9709 138.846 31.6082C138.302 31.2349 137.907 30.6749 137.662 29.9282C137.054 30.7069 136.297 31.2989 135.39 31.7042C134.483 32.0989 133.481 32.2962 132.382 32.2962C130.697 32.2962 129.369 31.8216 128.398 30.8722C127.427 29.9229 126.942 28.6642 126.942 27.0962C126.942 25.3576 127.619 24.0242 128.974 23.0962C130.329 22.1682 132.286 21.7042 134.846 21.7042H137.326V20.2962C137.326 19.0802 136.969 18.2216 136.254 17.7202C135.55 17.2082 134.569 16.9522 133.31 16.9522C132.755 16.9522 132.105 17.0216 131.358 17.1602C130.611 17.2882 129.801 17.5069 128.926 17.8162L128.222 15.7842C129.257 15.4002 130.227 15.1282 131.134 14.9682C132.041 14.8082 132.905 14.7282 133.726 14.7282C135.827 14.7282 137.401 15.2189 138.446 16.2002C139.502 17.1709 140.03 18.4936 140.03 20.1682V28.2482ZM133.07 30.2482C133.902 30.2482 134.697 30.0402 135.454 29.6242C136.211 29.1976 136.835 28.6109 137.326 27.8642V23.5282H134.894C133.038 23.5282 131.726 23.8482 130.958 24.4882C130.201 25.1282 129.822 25.9869 129.822 27.0642C129.822 28.1096 130.089 28.9042 130.622 29.4482C131.166 29.9816 131.982 30.2482 133.07 30.2482ZM160.53 31.0802C159.954 31.4642 159.255 31.7629 158.434 31.9762C157.612 32.1896 156.807 32.2962 156.018 32.2962C154.204 32.2962 152.807 31.8216 151.826 30.8722C150.844 29.9229 150.354 28.7016 150.354 27.2082V17.1602H146.482V15.0802H150.354V11.2562L153.042 10.9362V15.0802H158.866L158.546 17.1602H153.042V27.1762C153.042 28.1149 153.287 28.8296 153.778 29.3202C154.279 29.8109 155.106 30.0562 156.258 30.0562C156.887 30.0562 157.468 29.9816 158.002 29.8322C158.535 29.6829 159.031 29.4909 159.49 29.2562L160.53 31.0802ZM172.757 14.7282C174.346 14.7282 175.674 15.0909 176.741 15.8162C177.818 16.5309 178.624 17.5442 179.157 18.8562C179.701 20.1682 179.973 21.7149 179.973 23.4962C179.973 25.2136 179.696 26.7336 179.141 28.0562C178.586 29.3789 177.77 30.4189 176.693 31.1762C175.626 31.9229 174.304 32.2962 172.725 32.2962C171.146 32.2962 169.818 31.9336 168.741 31.2082C167.664 30.4829 166.848 29.4642 166.293 28.1522C165.749 26.8296 165.477 25.2882 165.477 23.5282C165.477 21.7896 165.754 20.2589 166.309 18.9362C166.864 17.6136 167.68 16.5842 168.757 15.8482C169.845 15.1016 171.178 14.7282 172.757 14.7282ZM172.757 16.9202C171.306 16.9202 170.208 17.4589 169.461 18.5362C168.725 19.6029 168.357 21.2669 168.357 23.5282C168.357 25.7469 168.72 27.3949 169.445 28.4722C170.181 29.5496 171.274 30.0882 172.725 30.0882C174.176 30.0882 175.264 29.5496 175.989 28.4722C176.725 27.3949 177.093 25.7362 177.093 23.4962C177.093 21.2562 176.73 19.6029 176.005 18.5362C175.28 17.4589 174.197 16.9202 172.757 16.9202Z" fill="#CECECE"/>
<rect x="191" y="20.4282" width="97" height="1" fill="#80CE87"/>
</svg>
