<svg width="675" height="40" viewBox="0 0 675 40" fill="none" xmlns="http://www.w3.org/2000/svg">
<path d="M15.9732 32L27.9732 20L15.9732 8L13 10.9732L22.0268 20L13 29.0268L15.9732 32Z" fill="#22B455"/>
<path d="M65.168 24.904C65.168 26.1627 64.8533 27.2827 64.224 28.264C63.5947 29.2347 62.6827 29.9973 61.488 30.552C60.2933 31.096 58.8373 31.368 57.12 31.368C55.5093 31.368 54.048 31.1227 52.736 30.632C51.4347 30.1413 50.32 29.448 49.392 28.552L51.04 26.696C51.808 27.4107 52.688 27.9813 53.68 28.408C54.672 28.824 55.8347 29.032 57.168 29.032C58.064 29.032 58.9013 28.888 59.68 28.6C60.4587 28.3013 61.088 27.8533 61.568 27.256C62.048 26.648 62.288 25.88 62.288 24.952C62.288 24.2373 62.1493 23.6293 61.872 23.128C61.5947 22.6267 61.104 22.184 60.4 21.8C59.696 21.4053 58.7147 21.0213 57.456 20.648C56.0053 20.2213 54.7467 19.7413 53.68 19.208C52.624 18.664 51.8027 17.9973 51.216 17.208C50.64 16.4187 50.352 15.4427 50.352 14.28C50.352 13.1813 50.656 12.2053 51.264 11.352C51.872 10.4987 52.7093 9.832 53.776 9.352C54.8533 8.86133 56.0907 8.616 57.488 8.616C59.0133 8.616 60.336 8.83467 61.456 9.272C62.5867 9.69867 63.6107 10.3173 64.528 11.128L62.896 12.936C62.1067 12.232 61.2587 11.7253 60.352 11.416C59.4453 11.096 58.5227 10.936 57.584 10.936C56.784 10.936 56.048 11.0587 55.376 11.304C54.7147 11.5387 54.1813 11.896 53.776 12.376C53.3813 12.8453 53.184 13.448 53.184 14.184C53.184 14.8133 53.3547 15.3573 53.696 15.816C54.0373 16.2747 54.6133 16.696 55.424 17.08C56.2347 17.4533 57.3387 17.848 58.736 18.264C59.8773 18.5947 60.9333 19.0107 61.904 19.512C62.8853 20.0027 63.6747 20.6747 64.272 21.528C64.8693 22.3707 65.168 23.496 65.168 24.904ZM84.5155 14.152L76.9315 21.736L85.3955 31H81.8595L73.5715 21.8L81.0275 14.152H84.5155ZM73.2675 7.032V31H70.5795V7.368L73.2675 7.032ZM98.119 14.152V28.872H102.871V31H90.231V28.872H95.431V16.28H90.391V14.152H98.119ZM95.975 6.264C96.5723 6.264 97.047 6.44533 97.399 6.808C97.7617 7.17067 97.943 7.61333 97.943 8.136C97.943 8.68 97.7617 9.13867 97.399 9.512C97.047 9.87467 96.5723 10.056 95.975 10.056C95.4097 10.056 94.9457 9.87467 94.583 9.512C94.2203 9.13867 94.039 8.68 94.039 8.136C94.039 7.61333 94.2203 7.17067 94.583 6.808C94.9457 6.44533 95.4097 6.264 95.975 6.264ZM115.339 7.368V26.84C115.339 27.672 115.595 28.264 116.107 28.616C116.629 28.9573 117.301 29.128 118.123 29.128C118.635 29.128 119.12 29.0747 119.579 28.968C120.037 28.8613 120.496 28.7173 120.955 28.536L121.675 30.504C121.216 30.728 120.645 30.9253 119.963 31.096C119.291 31.2773 118.528 31.368 117.675 31.368C116.181 31.368 114.971 30.9573 114.043 30.136C113.115 29.304 112.651 28.1573 112.651 26.696V9.496H107.483V7.368H115.339ZM134.526 7.368V26.84C134.526 27.672 134.782 28.264 135.294 28.616C135.817 28.9573 136.489 29.128 137.31 29.128C137.822 29.128 138.307 29.0747 138.766 28.968C139.225 28.8613 139.683 28.7173 140.142 28.536L140.862 30.504C140.403 30.728 139.833 30.9253 139.15 31.096C138.478 31.2773 137.715 31.368 136.862 31.368C135.369 31.368 134.158 30.9573 133.23 30.136C132.302 29.304 131.838 28.1573 131.838 26.696V9.496H126.67V7.368H134.526ZM152.882 29.144C154.172 29.144 155.191 28.904 155.938 28.424C156.695 27.9333 157.074 27.2827 157.074 26.472C157.074 25.96 156.978 25.5173 156.786 25.144C156.604 24.7707 156.226 24.4347 155.65 24.136C155.074 23.8373 154.188 23.5387 152.994 23.24C151.831 22.952 150.818 22.6213 149.954 22.248C149.1 21.864 148.434 21.368 147.954 20.76C147.484 20.152 147.25 19.3627 147.25 18.392C147.25 17.4427 147.516 16.6267 148.049 15.944C148.594 15.2507 149.346 14.7227 150.306 14.36C151.266 13.9867 152.38 13.8 153.65 13.8C155.004 13.8 156.183 13.9813 157.186 14.344C158.199 14.696 159.058 15.1333 159.762 15.656L158.578 17.48C157.938 17.0427 157.234 16.6853 156.466 16.408C155.698 16.12 154.77 15.976 153.682 15.976C152.359 15.976 151.42 16.184 150.866 16.6C150.311 17.0053 150.034 17.5333 150.034 18.184C150.034 18.6747 150.167 19.0853 150.434 19.416C150.711 19.736 151.175 20.0293 151.826 20.296C152.476 20.552 153.372 20.8347 154.514 21.144C155.612 21.432 156.567 21.7787 157.378 22.184C158.199 22.5893 158.839 23.1227 159.298 23.784C159.756 24.4453 159.986 25.2987 159.986 26.344C159.986 27.5387 159.644 28.5093 158.962 29.256C158.279 29.992 157.394 30.5307 156.306 30.872C155.228 31.2027 154.087 31.368 152.882 31.368C151.356 31.368 150.055 31.1493 148.978 30.712C147.911 30.264 147.015 29.7253 146.289 29.096L147.826 27.32C148.487 27.864 149.244 28.3067 150.098 28.648C150.962 28.9787 151.89 29.144 152.882 29.144Z" fill="#CECECE"/>
<rect x="172" y="19.5" width="416" height="1" fill="#80CE87"/>
</svg>
