<svg width="320" height="41" viewBox="0 0 320 41" fill="none" xmlns="http://www.w3.org/2000/svg">
<path d="M15.9732 32.9282L27.9732 20.9282L15.9732 8.92822L13 11.9014L22.0268 20.9282L13 29.955L15.9732 32.9282Z" fill="#22B455"/>
<path d="M62.848 16.6962C62.848 15.5549 62.624 14.6536 62.176 13.9922C61.728 13.3202 61.1147 12.8402 60.336 12.5522C59.5573 12.2536 58.6667 12.1042 57.664 12.1042H54.48V21.5122H57.552C58.5867 21.5122 59.4987 21.3736 60.288 21.0962C61.0773 20.8082 61.7013 20.3176 62.16 19.6242C62.6187 18.9202 62.848 17.9442 62.848 16.6962ZM65.824 16.6642C65.824 18.3816 65.456 19.7576 64.72 20.7922C63.9947 21.8269 62.992 22.5789 61.712 23.0482C60.432 23.5176 58.96 23.7522 57.296 23.7522H54.48V31.9282H51.696V9.89622H57.328C59.952 9.89622 62.0213 10.4509 63.536 11.5602C65.0613 12.6589 65.824 14.3602 65.824 16.6642ZM70.5635 31.9282V29.8642H73.1875V17.1442H70.5635V15.0802H75.2355L75.7315 19.0642C76.3822 17.6776 77.1715 16.6056 78.0995 15.8482C79.0275 15.0909 80.2542 14.7122 81.7795 14.7122C82.2488 14.7122 82.6648 14.7496 83.0275 14.8242C83.4008 14.8882 83.7795 14.9736 84.1635 15.0802L83.3795 17.4802C83.0275 17.3842 82.7075 17.3149 82.4195 17.2722C82.1315 17.2189 81.8008 17.1922 81.4275 17.1922C80.1368 17.1922 79.0275 17.6509 78.0995 18.5682C77.1715 19.4856 76.4302 20.8722 75.8755 22.7282V29.8642H79.2995V31.9282H70.5635ZM81.5715 20.7762V17.1122L81.8435 15.0802H84.1635L83.7795 20.7762H81.5715ZM96.007 14.7282C97.5963 14.7282 98.9243 15.0909 99.991 15.8162C101.068 16.5309 101.874 17.5442 102.407 18.8562C102.951 20.1682 103.223 21.7149 103.223 23.4962C103.223 25.2136 102.946 26.7336 102.391 28.0562C101.836 29.3789 101.02 30.4189 99.943 31.1762C98.8763 31.9229 97.5537 32.2962 95.975 32.2962C94.3963 32.2962 93.0683 31.9336 91.991 31.2082C90.9137 30.4829 90.0977 29.4642 89.543 28.1522C88.999 26.8296 88.727 25.2882 88.727 23.5282C88.727 21.7896 89.0043 20.2589 89.559 18.9362C90.1137 17.6136 90.9297 16.5842 92.007 15.8482C93.095 15.1016 94.4283 14.7282 96.007 14.7282ZM96.007 16.9202C94.5563 16.9202 93.4577 17.4589 92.711 18.5362C91.975 19.6029 91.607 21.2669 91.607 23.5282C91.607 25.7469 91.9697 27.3949 92.695 28.4722C93.431 29.5496 94.5243 30.0882 95.975 30.0882C97.4257 30.0882 98.5137 29.5496 99.239 28.4722C99.975 27.3949 100.343 25.7362 100.343 23.4962C100.343 21.2562 99.9803 19.6029 99.255 18.5362C98.5297 17.4589 97.447 16.9202 96.007 16.9202ZM119.803 15.0802V29.2242C119.803 31.1016 119.381 32.6696 118.539 33.9282C117.696 35.1976 116.475 36.2162 114.875 36.9842C113.275 37.7522 111.339 38.3282 109.067 38.7122L108.619 36.6322C110.283 36.3549 111.755 35.9389 113.035 35.3842C114.315 34.8296 115.312 34.0669 116.027 33.0962C116.752 32.1362 117.115 30.9042 117.115 29.4002V17.2082H110.107V15.0802H119.803ZM117.291 7.19222C117.888 7.19222 118.368 7.37355 118.731 7.73622C119.093 8.09889 119.275 8.54156 119.275 9.06422C119.275 9.60822 119.093 10.0669 118.731 10.4402C118.368 10.8029 117.888 10.9842 117.291 10.9842C116.715 10.9842 116.251 10.8029 115.899 10.4402C115.547 10.0669 115.371 9.60822 115.371 9.06422C115.371 8.54156 115.547 8.09889 115.899 7.73622C116.251 7.37355 116.715 7.19222 117.291 7.19222ZM130.078 24.4562C130.131 25.7576 130.382 26.8242 130.83 27.6562C131.278 28.4776 131.87 29.0856 132.606 29.4802C133.342 29.8642 134.142 30.0562 135.006 30.0562C135.87 30.0562 136.649 29.9282 137.342 29.6722C138.046 29.4162 138.766 29.0376 139.502 28.5362L140.766 30.3122C139.977 30.9309 139.075 31.4162 138.062 31.7682C137.059 32.1202 136.03 32.2962 134.974 32.2962C133.342 32.2962 131.95 31.9282 130.798 31.1922C129.646 30.4562 128.766 29.4322 128.158 28.1202C127.561 26.7976 127.262 25.2669 127.262 23.5282C127.262 21.8216 127.566 20.3069 128.174 18.9842C128.782 17.6616 129.635 16.6216 130.734 15.8642C131.833 15.1069 133.129 14.7282 134.622 14.7282C136.041 14.7282 137.262 15.0642 138.286 15.7362C139.31 16.3976 140.094 17.3469 140.638 18.5842C141.193 19.8109 141.47 21.2776 141.47 22.9842C141.47 23.2722 141.465 23.5442 141.454 23.8002C141.443 24.0456 141.427 24.2642 141.406 24.4562H130.078ZM134.654 16.9362C133.406 16.9362 132.361 17.3789 131.518 18.2642C130.686 19.1496 130.211 20.5202 130.094 22.3762H138.878C138.846 20.5736 138.451 19.2189 137.694 18.3122C136.937 17.3949 135.923 16.9362 134.654 16.9362ZM160.53 31.0802C159.954 31.4642 159.255 31.7629 158.434 31.9762C157.612 32.1896 156.807 32.2962 156.018 32.2962C154.204 32.2962 152.807 31.8216 151.826 30.8722C150.844 29.9229 150.354 28.7016 150.354 27.2082V17.1602H146.482V15.0802H150.354V11.2562L153.042 10.9362V15.0802H158.866L158.546 17.1602H153.042V27.1762C153.042 28.1149 153.287 28.8296 153.778 29.3202C154.279 29.8109 155.106 30.0562 156.258 30.0562C156.887 30.0562 157.468 29.9816 158.002 29.8322C158.535 29.6829 159.031 29.4909 159.49 29.2562L160.53 31.0802ZM172.757 14.7282C174.346 14.7282 175.674 15.0909 176.741 15.8162C177.818 16.5309 178.624 17.5442 179.157 18.8562C179.701 20.1682 179.973 21.7149 179.973 23.4962C179.973 25.2136 179.696 26.7336 179.141 28.0562C178.586 29.3789 177.77 30.4189 176.693 31.1762C175.626 31.9229 174.304 32.2962 172.725 32.2962C171.146 32.2962 169.818 31.9336 168.741 31.2082C167.664 30.4829 166.848 29.4642 166.293 28.1522C165.749 26.8296 165.477 25.2882 165.477 23.5282C165.477 21.7896 165.754 20.2589 166.309 18.9362C166.864 17.6136 167.68 16.5842 168.757 15.8482C169.845 15.1016 171.178 14.7282 172.757 14.7282ZM172.757 16.9202C171.306 16.9202 170.208 17.4589 169.461 18.5362C168.725 19.6029 168.357 21.2669 168.357 23.5282C168.357 25.7469 168.72 27.3949 169.445 28.4722C170.181 29.5496 171.274 30.0882 172.725 30.0882C174.176 30.0882 175.264 29.5496 175.989 28.4722C176.725 27.3949 177.093 25.7362 177.093 23.4962C177.093 21.2562 176.73 19.6029 176.005 18.5362C175.28 17.4589 174.197 16.9202 172.757 16.9202ZM191.257 30.0722C192.547 30.0722 193.566 29.8322 194.313 29.3522C195.07 28.8616 195.449 28.2109 195.449 27.4002C195.449 26.8882 195.353 26.4456 195.161 26.0722C194.979 25.6989 194.601 25.3629 194.025 25.0642C193.449 24.7656 192.563 24.4669 191.369 24.1682C190.206 23.8802 189.193 23.5496 188.329 23.1762C187.475 22.7922 186.809 22.2962 186.329 21.6882C185.859 21.0802 185.625 20.2909 185.625 19.3202C185.625 18.3709 185.891 17.5549 186.424 16.8722C186.969 16.1789 187.721 15.6509 188.681 15.2882C189.641 14.9149 190.755 14.7282 192.025 14.7282C193.379 14.7282 194.558 14.9096 195.561 15.2722C196.574 15.6242 197.433 16.0616 198.137 16.5842L196.953 18.4082C196.313 17.9709 195.609 17.6136 194.841 17.3362C194.073 17.0482 193.145 16.9042 192.057 16.9042C190.734 16.9042 189.795 17.1122 189.241 17.5282C188.686 17.9336 188.409 18.4616 188.409 19.1122C188.409 19.6029 188.542 20.0136 188.809 20.3442C189.086 20.6642 189.55 20.9576 190.201 21.2242C190.851 21.4802 191.747 21.7629 192.889 22.0722C193.987 22.3602 194.942 22.7069 195.753 23.1122C196.574 23.5176 197.214 24.0509 197.673 24.7122C198.131 25.3736 198.361 26.2269 198.361 27.2722C198.361 28.4669 198.019 29.4376 197.337 30.1842C196.654 30.9202 195.769 31.4589 194.681 31.8002C193.603 32.1309 192.462 32.2962 191.257 32.2962C189.731 32.2962 188.43 32.0776 187.353 31.6402C186.286 31.1922 185.39 30.6536 184.664 30.0242L186.201 28.2482C186.862 28.7922 187.619 29.2349 188.473 29.5762C189.337 29.9069 190.265 30.0722 191.257 30.0722Z" fill="#CECECE"/>
<rect x="210" y="20.4282" width="80" height="1" fill="#80CE87"/>
</svg>
