<svg width="580" height="40" viewBox="0 0 580 40" fill="none" xmlns="http://www.w3.org/2000/svg">
<path d="M15.9732 32.0001L27.9732 20.0001L15.9732 8.00006L13 10.9733L22.0268 20.0001L13 29.0269L15.9732 32.0001Z" fill="#22B455"/>
<path d="M65.168 24.904C65.168 26.1627 64.8533 27.2827 64.224 28.264C63.5947 29.2347 62.6827 29.9973 61.488 30.552C60.2933 31.096 58.8373 31.368 57.12 31.368C55.5093 31.368 54.048 31.1227 52.736 30.632C51.4347 30.1413 50.32 29.448 49.392 28.552L51.04 26.696C51.808 27.4107 52.688 27.9813 53.68 28.408C54.672 28.824 55.8347 29.032 57.168 29.032C58.064 29.032 58.9013 28.888 59.68 28.6C60.4587 28.3013 61.088 27.8533 61.568 27.256C62.048 26.648 62.288 25.88 62.288 24.952C62.288 24.2373 62.1493 23.6293 61.872 23.128C61.5947 22.6267 61.104 22.184 60.4 21.8C59.696 21.4053 58.7147 21.0213 57.456 20.648C56.0053 20.2213 54.7467 19.7413 53.68 19.208C52.624 18.664 51.8027 17.9973 51.216 17.208C50.64 16.4187 50.352 15.4427 50.352 14.28C50.352 13.1813 50.656 12.2053 51.264 11.352C51.872 10.4987 52.7093 9.832 53.776 9.352C54.8533 8.86133 56.0907 8.616 57.488 8.616C59.0133 8.616 60.336 8.83467 61.456 9.272C62.5867 9.69867 63.6107 10.3173 64.528 11.128L62.896 12.936C62.1067 12.232 61.2587 11.7253 60.352 11.416C59.4453 11.096 58.5227 10.936 57.584 10.936C56.784 10.936 56.048 11.0587 55.376 11.304C54.7147 11.5387 54.1813 11.896 53.776 12.376C53.3813 12.8453 53.184 13.448 53.184 14.184C53.184 14.8133 53.3547 15.3573 53.696 15.816C54.0373 16.2747 54.6133 16.696 55.424 17.08C56.2347 17.4533 57.3387 17.848 58.736 18.264C59.8773 18.5947 60.9333 19.0107 61.904 19.512C62.8853 20.0027 63.6747 20.6747 64.272 21.528C64.8693 22.3707 65.168 23.496 65.168 24.904ZM76.8195 13.8C78.4088 13.8 79.7368 14.1627 80.8035 14.888C81.8808 15.6027 82.6862 16.616 83.2195 17.928C83.7635 19.24 84.0355 20.7867 84.0355 22.568C84.0355 24.2853 83.7582 25.8053 83.2035 27.128C82.6488 28.4507 81.8328 29.4907 80.7555 30.248C79.6888 30.9947 78.3662 31.368 76.7875 31.368C75.2088 31.368 73.8808 31.0053 72.8035 30.28C71.7262 29.5547 70.9102 28.536 70.3555 27.224C69.8115 25.9013 69.5395 24.36 69.5395 22.6C69.5395 20.8613 69.8168 19.3307 70.3715 18.008C70.9262 16.6853 71.7422 15.656 72.8195 14.92C73.9075 14.1733 75.2408 13.8 76.8195 13.8ZM76.8195 15.992C75.3688 15.992 74.2702 16.5307 73.5235 17.608C72.7875 18.6747 72.4195 20.3387 72.4195 22.6C72.4195 24.8187 72.7822 26.4667 73.5075 27.544C74.2435 28.6213 75.3368 29.16 76.7875 29.16C78.2382 29.16 79.3262 28.6213 80.0515 27.544C80.7875 26.4667 81.1555 24.808 81.1555 22.568C81.1555 20.328 80.7928 18.6747 80.0675 17.608C79.3422 16.5307 78.2595 15.992 76.8195 15.992ZM92.279 16.344C92.8977 15.5333 93.607 14.9093 94.407 14.472C95.2177 14.024 96.1083 13.8 97.079 13.8C98.583 13.8 99.799 14.1627 100.727 14.888C101.655 15.6133 102.332 16.6373 102.759 17.96C103.186 19.272 103.399 20.808 103.399 22.568C103.399 24.264 103.143 25.7787 102.631 27.112C102.119 28.4347 101.367 29.4747 100.375 30.232C99.3937 30.9893 98.1777 31.368 96.727 31.368C94.775 31.368 93.2443 30.664 92.135 29.256L91.943 31H89.591V7.368L92.279 7.032V16.344ZM96.087 29.192C97.495 29.192 98.5777 28.648 99.335 27.56C100.092 26.472 100.471 24.8027 100.471 22.552C100.471 21.08 100.322 19.8587 100.023 18.888C99.7243 17.9067 99.2763 17.176 98.679 16.696C98.0923 16.2053 97.367 15.96 96.503 15.96C95.5643 15.96 94.7377 16.2427 94.023 16.808C93.319 17.3627 92.7377 17.9813 92.279 18.664V27.016C92.7163 27.6773 93.2657 28.2053 93.927 28.6C94.599 28.9947 95.319 29.192 96.087 29.192ZM108.939 31V28.936H111.563V16.216H108.939V14.152H113.611L114.107 18.136C114.757 16.7493 115.547 15.6773 116.475 14.92C117.403 14.1627 118.629 13.784 120.155 13.784C120.624 13.784 121.04 13.8213 121.403 13.896C121.776 13.96 122.155 14.0453 122.539 14.152L121.755 16.552C121.403 16.456 121.083 16.3867 120.795 16.344C120.507 16.2907 120.176 16.264 119.803 16.264C118.512 16.264 117.403 16.7227 116.475 17.64C115.547 18.5573 114.805 19.944 114.251 21.8V28.936H117.675V31H108.939ZM119.947 19.848V16.184L120.219 14.152H122.539L122.155 19.848H119.947ZM130.078 23.528C130.131 24.8293 130.382 25.896 130.83 26.728C131.278 27.5493 131.87 28.1573 132.606 28.552C133.342 28.936 134.142 29.128 135.006 29.128C135.87 29.128 136.649 29 137.342 28.744C138.046 28.488 138.766 28.1093 139.502 27.608L140.766 29.384C139.977 30.0027 139.075 30.488 138.062 30.84C137.059 31.192 136.03 31.368 134.974 31.368C133.342 31.368 131.95 31 130.798 30.264C129.646 29.528 128.766 28.504 128.158 27.192C127.561 25.8693 127.262 24.3387 127.262 22.6C127.262 20.8933 127.566 19.3787 128.174 18.056C128.782 16.7333 129.635 15.6933 130.734 14.936C131.833 14.1787 133.129 13.8 134.622 13.8C136.041 13.8 137.262 14.136 138.286 14.808C139.31 15.4693 140.094 16.4187 140.638 17.656C141.193 18.8827 141.47 20.3493 141.47 22.056C141.47 22.344 141.465 22.616 141.454 22.872C141.443 23.1173 141.427 23.336 141.406 23.528H130.078ZM134.654 16.008C133.406 16.008 132.361 16.4507 131.518 17.336C130.686 18.2213 130.211 19.592 130.094 21.448H138.878C138.846 19.6453 138.451 18.2907 137.694 17.384C136.937 16.4667 135.923 16.008 134.654 16.008Z" fill="#CECECE"/>
<rect x="152" y="19.5" width="416" height="1" fill="#80CE87"/>
</svg>
