<svg width="320" height="41" viewBox="0 0 320 41" fill="none" xmlns="http://www.w3.org/2000/svg">
<path d="M15.9732 32.9282L27.9732 20.9282L15.9732 8.92822L13 11.9014L22.0268 20.9282L13 29.955L15.9732 32.9282Z" fill="#22B455"/>
<path d="M65.168 25.8322C65.168 27.0909 64.8533 28.2109 64.224 29.1922C63.5947 30.1629 62.6827 30.9256 61.488 31.4802C60.2933 32.0242 58.8373 32.2962 57.12 32.2962C55.5093 32.2962 54.048 32.0509 52.736 31.5602C51.4347 31.0696 50.32 30.3762 49.392 29.4802L51.04 27.6242C51.808 28.3389 52.688 28.9096 53.68 29.3362C54.672 29.7522 55.8347 29.9602 57.168 29.9602C58.064 29.9602 58.9013 29.8162 59.68 29.5282C60.4587 29.2296 61.088 28.7816 61.568 28.1842C62.048 27.5762 62.288 26.8082 62.288 25.8802C62.288 25.1656 62.1493 24.5576 61.872 24.0562C61.5947 23.5549 61.104 23.1122 60.4 22.7282C59.696 22.3336 58.7147 21.9496 57.456 21.5762C56.0053 21.1496 54.7467 20.6696 53.68 20.1362C52.624 19.5922 51.8027 18.9256 51.216 18.1362C50.64 17.3469 50.352 16.3709 50.352 15.2082C50.352 14.1096 50.656 13.1336 51.264 12.2802C51.872 11.4269 52.7093 10.7602 53.776 10.2802C54.8533 9.78956 56.0907 9.54422 57.488 9.54422C59.0133 9.54422 60.336 9.76289 61.456 10.2002C62.5867 10.6269 63.6107 11.2456 64.528 12.0562L62.896 13.8642C62.1067 13.1602 61.2587 12.6536 60.352 12.3442C59.4453 12.0242 58.5227 11.8642 57.584 11.8642C56.784 11.8642 56.048 11.9869 55.376 12.2322C54.7147 12.4669 54.1813 12.8242 53.776 13.3042C53.3813 13.7736 53.184 14.3762 53.184 15.1122C53.184 15.7416 53.3547 16.2856 53.696 16.7442C54.0373 17.2029 54.6133 17.6242 55.424 18.0082C56.2347 18.3816 57.3387 18.7762 58.736 19.1922C59.8773 19.5229 60.9333 19.9389 61.904 20.4402C62.8853 20.9309 63.6747 21.6029 64.272 22.4562C64.8693 23.2989 65.168 24.4242 65.168 25.8322ZM84.5155 15.0802L76.9315 22.6642L85.3955 31.9282H81.8595L73.5715 22.7282L81.0275 15.0802H84.5155ZM73.2675 7.96022V31.9282H70.5795V8.29622L73.2675 7.96022ZM98.119 15.0802V29.8002H102.871V31.9282H90.231V29.8002H95.431V17.2082H90.391V15.0802H98.119ZM95.975 7.19222C96.5723 7.19222 97.047 7.37355 97.399 7.73622C97.7617 8.09889 97.943 8.54156 97.943 9.06422C97.943 9.60822 97.7617 10.0669 97.399 10.4402C97.047 10.8029 96.5723 10.9842 95.975 10.9842C95.4097 10.9842 94.9457 10.8029 94.583 10.4402C94.2203 10.0669 94.039 9.60822 94.039 9.06422C94.039 8.54156 94.2203 8.09889 94.583 7.73622C94.9457 7.37355 95.4097 7.19222 95.975 7.19222ZM115.339 8.29622V27.7682C115.339 28.6002 115.595 29.1922 116.107 29.5442C116.629 29.8856 117.301 30.0562 118.123 30.0562C118.635 30.0562 119.12 30.0029 119.579 29.8962C120.037 29.7896 120.496 29.6456 120.955 29.4642L121.675 31.4322C121.216 31.6562 120.645 31.8536 119.963 32.0242C119.291 32.2056 118.528 32.2962 117.675 32.2962C116.181 32.2962 114.971 31.8856 114.043 31.0642C113.115 30.2322 112.651 29.0856 112.651 27.6242V10.4242H107.483V8.29622H115.339ZM134.526 8.29622V27.7682C134.526 28.6002 134.782 29.1922 135.294 29.5442C135.817 29.8856 136.489 30.0562 137.31 30.0562C137.822 30.0562 138.307 30.0029 138.766 29.8962C139.225 29.7896 139.683 29.6456 140.142 29.4642L140.862 31.4322C140.403 31.6562 139.833 31.8536 139.15 32.0242C138.478 32.2056 137.715 32.2962 136.862 32.2962C135.369 32.2962 134.158 31.8856 133.23 31.0642C132.302 30.2322 131.838 29.0856 131.838 27.6242V10.4242H126.67V8.29622H134.526ZM152.882 30.0722C154.172 30.0722 155.191 29.8322 155.938 29.3522C156.695 28.8616 157.074 28.2109 157.074 27.4002C157.074 26.8882 156.978 26.4456 156.786 26.0722C156.604 25.6989 156.226 25.3629 155.65 25.0642C155.074 24.7656 154.188 24.4669 152.994 24.1682C151.831 23.8802 150.818 23.5496 149.954 23.1762C149.1 22.7922 148.434 22.2962 147.954 21.6882C147.484 21.0802 147.25 20.2909 147.25 19.3202C147.25 18.3709 147.516 17.5549 148.049 16.8722C148.594 16.1789 149.346 15.6509 150.306 15.2882C151.266 14.9149 152.38 14.7282 153.65 14.7282C155.004 14.7282 156.183 14.9096 157.186 15.2722C158.199 15.6242 159.058 16.0616 159.762 16.5842L158.578 18.4082C157.938 17.9709 157.234 17.6136 156.466 17.3362C155.698 17.0482 154.77 16.9042 153.682 16.9042C152.359 16.9042 151.42 17.1122 150.866 17.5282C150.311 17.9336 150.034 18.4616 150.034 19.1122C150.034 19.6029 150.167 20.0136 150.434 20.3442C150.711 20.6642 151.175 20.9576 151.826 21.2242C152.476 21.4802 153.372 21.7629 154.514 22.0722C155.612 22.3602 156.567 22.7069 157.378 23.1122C158.199 23.5176 158.839 24.0509 159.298 24.7122C159.756 25.3736 159.986 26.2269 159.986 27.2722C159.986 28.4669 159.644 29.4376 158.962 30.1842C158.279 30.9202 157.394 31.4589 156.306 31.8002C155.228 32.1309 154.087 32.2962 152.882 32.2962C151.356 32.2962 150.055 32.0776 148.978 31.6402C147.911 31.1922 147.015 30.6536 146.289 30.0242L147.826 28.2482C148.487 28.7922 149.244 29.2349 150.098 29.5762C150.962 29.9069 151.89 30.0722 152.882 30.0722Z" fill="#CECECE"/>
<rect x="172" y="20.4282" width="118" height="1" fill="#80CE87"/>
</svg>
