<svg width="675" height="40" viewBox="0 0 675 40" fill="none" xmlns="http://www.w3.org/2000/svg">
<path d="M15.9732 32L27.9732 20L15.9732 8L13 10.9732L22.0268 20L13 29.0268L15.9732 32Z" fill="#22B455"/>
<path d="M59.456 8.616C60.896 8.616 62.1013 8.79733 63.072 9.16C64.0427 9.52267 64.9653 10.056 65.84 10.76L64.288 12.568C63.5947 11.9813 62.8587 11.5653 62.08 11.32C61.312 11.064 60.5067 10.936 59.664 10.936C58.4587 10.936 57.344 11.224 56.32 11.8C55.296 12.3653 54.4693 13.3093 53.84 14.632C53.2213 15.944 52.912 17.7253 52.912 19.976C52.912 22.1627 53.2053 23.9173 53.792 25.24C54.3893 26.5627 55.1947 27.5173 56.208 28.104C57.2213 28.6907 58.352 28.984 59.6 28.984C60.8373 28.984 61.8507 28.7973 62.64 28.424C63.44 28.0507 64.1333 27.624 64.72 27.144L66.16 28.968C65.488 29.6187 64.6133 30.184 63.536 30.664C62.4587 31.1333 61.136 31.368 59.568 31.368C57.7867 31.368 56.1707 30.9307 54.72 30.056C53.28 29.1813 52.1387 27.9013 51.296 26.216C50.4533 24.52 50.032 22.44 50.032 19.976C50.032 17.5013 50.4587 15.4213 51.312 13.736C52.176 12.0507 53.3227 10.776 54.752 9.912C56.192 9.048 57.76 8.616 59.456 8.616ZM76.8195 13.8C78.4088 13.8 79.7368 14.1627 80.8035 14.888C81.8808 15.6027 82.6862 16.616 83.2195 17.928C83.7635 19.24 84.0355 20.7867 84.0355 22.568C84.0355 24.2853 83.7582 25.8053 83.2035 27.128C82.6488 28.4507 81.8328 29.4907 80.7555 30.248C79.6888 30.9947 78.3662 31.368 76.7875 31.368C75.2088 31.368 73.8808 31.0053 72.8035 30.28C71.7262 29.5547 70.9102 28.536 70.3555 27.224C69.8115 25.9013 69.5395 24.36 69.5395 22.6C69.5395 20.8613 69.8168 19.3307 70.3715 18.008C70.9262 16.6853 71.7422 15.656 72.8195 14.92C73.9075 14.1733 75.2408 13.8 76.8195 13.8ZM76.8195 15.992C75.3688 15.992 74.2702 16.5307 73.5235 17.608C72.7875 18.6747 72.4195 20.3387 72.4195 22.6C72.4195 24.8187 72.7822 26.4667 73.5075 27.544C74.2435 28.6213 75.3368 29.16 76.7875 29.16C78.2382 29.16 79.3262 28.6213 80.0515 27.544C80.7875 26.4667 81.1555 24.808 81.1555 22.568C81.1555 20.328 80.7928 18.6747 80.0675 17.608C79.3422 16.5307 78.2595 15.992 76.8195 15.992ZM89.591 31V14.152H91.879L92.087 16.488C92.7697 15.624 93.623 14.9627 94.647 14.504C95.6817 14.0347 96.6843 13.8 97.655 13.8C99.3083 13.8 100.508 14.2373 101.255 15.112C102.012 15.9867 102.391 17.2027 102.391 18.76V31H99.703V20.744C99.703 19.592 99.639 18.664 99.511 17.96C99.383 17.2453 99.1163 16.728 98.711 16.408C98.3057 16.0773 97.6763 15.912 96.823 15.912C96.1617 15.912 95.5377 16.056 94.951 16.344C94.375 16.632 93.8577 16.9947 93.399 17.432C92.951 17.8587 92.5777 18.2907 92.279 18.728V31H89.591ZM122.155 30.152C121.579 30.536 120.88 30.8347 120.059 31.048C119.237 31.2613 118.432 31.368 117.643 31.368C115.829 31.368 114.432 30.8933 113.451 29.944C112.469 28.9947 111.979 27.7733 111.979 26.28V16.232H108.107V14.152H111.979V10.328L114.667 10.008V14.152H120.491L120.171 16.232H114.667V26.248C114.667 27.1867 114.912 27.9013 115.403 28.392C115.904 28.8827 116.731 29.128 117.883 29.128C118.512 29.128 119.093 29.0533 119.627 28.904C120.16 28.7547 120.656 28.5627 121.115 28.328L122.155 30.152ZM140.03 27.32C140.03 27.992 140.142 28.4827 140.366 28.792C140.59 29.1013 140.937 29.3307 141.406 29.48L140.75 31.368C140.025 31.272 139.39 31.0427 138.846 30.68C138.302 30.3067 137.907 29.7467 137.662 29C137.054 29.7787 136.297 30.3707 135.39 30.776C134.483 31.1707 133.481 31.368 132.382 31.368C130.697 31.368 129.369 30.8933 128.398 29.944C127.427 28.9947 126.942 27.736 126.942 26.168C126.942 24.4293 127.619 23.096 128.974 22.168C130.329 21.24 132.286 20.776 134.846 20.776H137.326V19.368C137.326 18.152 136.969 17.2933 136.254 16.792C135.55 16.28 134.569 16.024 133.31 16.024C132.755 16.024 132.105 16.0933 131.358 16.232C130.611 16.36 129.801 16.5787 128.926 16.888L128.222 14.856C129.257 14.472 130.227 14.2 131.134 14.04C132.041 13.88 132.905 13.8 133.726 13.8C135.827 13.8 137.401 14.2907 138.446 15.272C139.502 16.2427 140.03 17.5653 140.03 19.24V27.32ZM133.07 29.32C133.902 29.32 134.697 29.112 135.454 28.696C136.211 28.2693 136.835 27.6827 137.326 26.936V22.6H134.894C133.038 22.6 131.726 22.92 130.958 23.56C130.201 24.2 129.822 25.0587 129.822 26.136C129.822 27.1813 130.089 27.976 130.622 28.52C131.166 29.0533 131.982 29.32 133.07 29.32ZM160.53 30.152C159.954 30.536 159.255 30.8347 158.434 31.048C157.612 31.2613 156.807 31.368 156.018 31.368C154.204 31.368 152.807 30.8933 151.826 29.944C150.844 28.9947 150.354 27.7733 150.354 26.28V16.232H146.482V14.152H150.354V10.328L153.042 10.008V14.152H158.866L158.546 16.232H153.042V26.248C153.042 27.1867 153.287 27.9013 153.778 28.392C154.279 28.8827 155.106 29.128 156.258 29.128C156.887 29.128 157.468 29.0533 158.002 28.904C158.535 28.7547 159.031 28.5627 159.49 28.328L160.53 30.152ZM172.757 13.8C174.346 13.8 175.674 14.1627 176.741 14.888C177.818 15.6027 178.624 16.616 179.157 17.928C179.701 19.24 179.973 20.7867 179.973 22.568C179.973 24.2853 179.696 25.8053 179.141 27.128C178.586 28.4507 177.77 29.4907 176.693 30.248C175.626 30.9947 174.304 31.368 172.725 31.368C171.146 31.368 169.818 31.0053 168.741 30.28C167.664 29.5547 166.848 28.536 166.293 27.224C165.749 25.9013 165.477 24.36 165.477 22.6C165.477 20.8613 165.754 19.3307 166.309 18.008C166.864 16.6853 167.68 15.656 168.757 14.92C169.845 14.1733 171.178 13.8 172.757 13.8ZM172.757 15.992C171.306 15.992 170.208 16.5307 169.461 17.608C168.725 18.6747 168.357 20.3387 168.357 22.6C168.357 24.8187 168.72 26.4667 169.445 27.544C170.181 28.6213 171.274 29.16 172.725 29.16C174.176 29.16 175.264 28.6213 175.989 27.544C176.725 26.4667 177.093 24.808 177.093 22.568C177.093 20.328 176.73 18.6747 176.005 17.608C175.28 16.5307 174.197 15.992 172.757 15.992ZM191.257 29.144C192.547 29.144 193.566 28.904 194.313 28.424C195.07 27.9333 195.449 27.2827 195.449 26.472C195.449 25.96 195.353 25.5173 195.161 25.144C194.979 24.7707 194.601 24.4347 194.025 24.136C193.449 23.8373 192.563 23.5387 191.369 23.24C190.206 22.952 189.193 22.6213 188.329 22.248C187.475 21.864 186.809 21.368 186.329 20.76C185.859 20.152 185.625 19.3627 185.625 18.392C185.625 17.4427 185.891 16.6267 186.424 15.944C186.969 15.2507 187.721 14.7227 188.681 14.36C189.641 13.9867 190.755 13.8 192.025 13.8C193.379 13.8 194.558 13.9813 195.561 14.344C196.574 14.696 197.433 15.1333 198.137 15.656L196.953 17.48C196.313 17.0427 195.609 16.6853 194.841 16.408C194.073 16.12 193.145 15.976 192.057 15.976C190.734 15.976 189.795 16.184 189.241 16.6C188.686 17.0053 188.409 17.5333 188.409 18.184C188.409 18.6747 188.542 19.0853 188.809 19.416C189.086 19.736 189.55 20.0293 190.201 20.296C190.851 20.552 191.747 20.8347 192.889 21.144C193.987 21.432 194.942 21.7787 195.753 22.184C196.574 22.5893 197.214 23.1227 197.673 23.784C198.131 24.4453 198.361 25.2987 198.361 26.344C198.361 27.5387 198.019 28.5093 197.337 29.256C196.654 29.992 195.769 30.5307 194.681 30.872C193.603 31.2027 192.462 31.368 191.257 31.368C189.731 31.368 188.43 31.1493 187.353 30.712C186.286 30.264 185.39 29.7253 184.664 29.096L186.201 27.32C186.862 27.864 187.619 28.3067 188.473 28.648C189.337 28.9787 190.265 29.144 191.257 29.144Z" fill="#CECECE"/>
<rect x="210" y="19.5" width="416" height="1" fill="#80CE87"/>
</svg>
