<svg width="675" height="40" viewBox="0 0 675 40" fill="none" xmlns="http://www.w3.org/2000/svg">
<path d="M15.9732 32L27.9732 20L15.9732 8L13 10.9732L22.0268 20L13 29.0268L15.9732 32Z" fill="#22B455"/>
<path d="M62.848 15.768C62.848 14.6267 62.624 13.7253 62.176 13.064C61.728 12.392 61.1147 11.912 60.336 11.624C59.5573 11.3253 58.6667 11.176 57.664 11.176H54.48V20.584H57.552C58.5867 20.584 59.4987 20.4453 60.288 20.168C61.0773 19.88 61.7013 19.3893 62.16 18.696C62.6187 17.992 62.848 17.016 62.848 15.768ZM65.824 15.736C65.824 17.4533 65.456 18.8293 64.72 19.864C63.9947 20.8987 62.992 21.6507 61.712 22.12C60.432 22.5893 58.96 22.824 57.296 22.824H54.48V31H51.696V8.968H57.328C59.952 8.968 62.0213 9.52267 63.536 10.632C65.0613 11.7307 65.824 13.432 65.824 15.736ZM70.5635 31V28.936H73.1875V16.216H70.5635V14.152H75.2355L75.7315 18.136C76.3822 16.7493 77.1715 15.6773 78.0995 14.92C79.0275 14.1627 80.2542 13.784 81.7795 13.784C82.2488 13.784 82.6648 13.8213 83.0275 13.896C83.4008 13.96 83.7795 14.0453 84.1635 14.152L83.3795 16.552C83.0275 16.456 82.7075 16.3867 82.4195 16.344C82.1315 16.2907 81.8008 16.264 81.4275 16.264C80.1368 16.264 79.0275 16.7227 78.0995 17.64C77.1715 18.5573 76.4302 19.944 75.8755 21.8V28.936H79.2995V31H70.5635ZM81.5715 19.848V16.184L81.8435 14.152H84.1635L83.7795 19.848H81.5715ZM96.007 13.8C97.5963 13.8 98.9243 14.1627 99.991 14.888C101.068 15.6027 101.874 16.616 102.407 17.928C102.951 19.24 103.223 20.7867 103.223 22.568C103.223 24.2853 102.946 25.8053 102.391 27.128C101.836 28.4507 101.02 29.4907 99.943 30.248C98.8763 30.9947 97.5537 31.368 95.975 31.368C94.3963 31.368 93.0683 31.0053 91.991 30.28C90.9137 29.5547 90.0977 28.536 89.543 27.224C88.999 25.9013 88.727 24.36 88.727 22.6C88.727 20.8613 89.0043 19.3307 89.559 18.008C90.1137 16.6853 90.9297 15.656 92.007 14.92C93.095 14.1733 94.4283 13.8 96.007 13.8ZM96.007 15.992C94.5563 15.992 93.4577 16.5307 92.711 17.608C91.975 18.6747 91.607 20.3387 91.607 22.6C91.607 24.8187 91.9697 26.4667 92.695 27.544C93.431 28.6213 94.5243 29.16 95.975 29.16C97.4257 29.16 98.5137 28.6213 99.239 27.544C99.975 26.4667 100.343 24.808 100.343 22.568C100.343 20.328 99.9803 18.6747 99.255 17.608C98.5297 16.5307 97.447 15.992 96.007 15.992ZM119.803 14.152V28.296C119.803 30.1733 119.381 31.7413 118.539 33C117.696 34.2693 116.475 35.288 114.875 36.056C113.275 36.824 111.339 37.4 109.067 37.784L108.619 35.704C110.283 35.4267 111.755 35.0107 113.035 34.456C114.315 33.9013 115.312 33.1387 116.027 32.168C116.752 31.208 117.115 29.976 117.115 28.472V16.28H110.107V14.152H119.803ZM117.291 6.264C117.888 6.264 118.368 6.44533 118.731 6.808C119.093 7.17067 119.275 7.61333 119.275 8.136C119.275 8.68 119.093 9.13867 118.731 9.512C118.368 9.87467 117.888 10.056 117.291 10.056C116.715 10.056 116.251 9.87467 115.899 9.512C115.547 9.13867 115.371 8.68 115.371 8.136C115.371 7.61333 115.547 7.17067 115.899 6.808C116.251 6.44533 116.715 6.264 117.291 6.264ZM130.078 23.528C130.131 24.8293 130.382 25.896 130.83 26.728C131.278 27.5493 131.87 28.1573 132.606 28.552C133.342 28.936 134.142 29.128 135.006 29.128C135.87 29.128 136.649 29 137.342 28.744C138.046 28.488 138.766 28.1093 139.502 27.608L140.766 29.384C139.977 30.0027 139.075 30.488 138.062 30.84C137.059 31.192 136.03 31.368 134.974 31.368C133.342 31.368 131.95 31 130.798 30.264C129.646 29.528 128.766 28.504 128.158 27.192C127.561 25.8693 127.262 24.3387 127.262 22.6C127.262 20.8933 127.566 19.3787 128.174 18.056C128.782 16.7333 129.635 15.6933 130.734 14.936C131.833 14.1787 133.129 13.8 134.622 13.8C136.041 13.8 137.262 14.136 138.286 14.808C139.31 15.4693 140.094 16.4187 140.638 17.656C141.193 18.8827 141.47 20.3493 141.47 22.056C141.47 22.344 141.465 22.616 141.454 22.872C141.443 23.1173 141.427 23.336 141.406 23.528H130.078ZM134.654 16.008C133.406 16.008 132.361 16.4507 131.518 17.336C130.686 18.2213 130.211 19.592 130.094 21.448H138.878C138.846 19.6453 138.451 18.2907 137.694 17.384C136.937 16.4667 135.923 16.008 134.654 16.008ZM160.53 30.152C159.954 30.536 159.255 30.8347 158.434 31.048C157.612 31.2613 156.807 31.368 156.018 31.368C154.204 31.368 152.807 30.8933 151.826 29.944C150.844 28.9947 150.354 27.7733 150.354 26.28V16.232H146.482V14.152H150.354V10.328L153.042 10.008V14.152H158.866L158.546 16.232H153.042V26.248C153.042 27.1867 153.287 27.9013 153.778 28.392C154.279 28.8827 155.106 29.128 156.258 29.128C156.887 29.128 157.468 29.0533 158.002 28.904C158.535 28.7547 159.031 28.5627 159.49 28.328L160.53 30.152ZM172.757 13.8C174.346 13.8 175.674 14.1627 176.741 14.888C177.818 15.6027 178.624 16.616 179.157 17.928C179.701 19.24 179.973 20.7867 179.973 22.568C179.973 24.2853 179.696 25.8053 179.141 27.128C178.586 28.4507 177.77 29.4907 176.693 30.248C175.626 30.9947 174.304 31.368 172.725 31.368C171.146 31.368 169.818 31.0053 168.741 30.28C167.664 29.5547 166.848 28.536 166.293 27.224C165.749 25.9013 165.477 24.36 165.477 22.6C165.477 20.8613 165.754 19.3307 166.309 18.008C166.864 16.6853 167.68 15.656 168.757 14.92C169.845 14.1733 171.178 13.8 172.757 13.8ZM172.757 15.992C171.306 15.992 170.208 16.5307 169.461 17.608C168.725 18.6747 168.357 20.3387 168.357 22.6C168.357 24.8187 168.72 26.4667 169.445 27.544C170.181 28.6213 171.274 29.16 172.725 29.16C174.176 29.16 175.264 28.6213 175.989 27.544C176.725 26.4667 177.093 24.808 177.093 22.568C177.093 20.328 176.73 18.6747 176.005 17.608C175.28 16.5307 174.197 15.992 172.757 15.992ZM191.257 29.144C192.547 29.144 193.566 28.904 194.313 28.424C195.07 27.9333 195.449 27.2827 195.449 26.472C195.449 25.96 195.353 25.5173 195.161 25.144C194.979 24.7707 194.601 24.4347 194.025 24.136C193.449 23.8373 192.563 23.5387 191.369 23.24C190.206 22.952 189.193 22.6213 188.329 22.248C187.475 21.864 186.809 21.368 186.329 20.76C185.859 20.152 185.625 19.3627 185.625 18.392C185.625 17.4427 185.891 16.6267 186.424 15.944C186.969 15.2507 187.721 14.7227 188.681 14.36C189.641 13.9867 190.755 13.8 192.025 13.8C193.379 13.8 194.558 13.9813 195.561 14.344C196.574 14.696 197.433 15.1333 198.137 15.656L196.953 17.48C196.313 17.0427 195.609 16.6853 194.841 16.408C194.073 16.12 193.145 15.976 192.057 15.976C190.734 15.976 189.795 16.184 189.241 16.6C188.686 17.0053 188.409 17.5333 188.409 18.184C188.409 18.6747 188.542 19.0853 188.809 19.416C189.086 19.736 189.55 20.0293 190.201 20.296C190.851 20.552 191.747 20.8347 192.889 21.144C193.987 21.432 194.942 21.7787 195.753 22.184C196.574 22.5893 197.214 23.1227 197.673 23.784C198.131 24.4453 198.361 25.2987 198.361 26.344C198.361 27.5387 198.019 28.5093 197.337 29.256C196.654 29.992 195.769 30.5307 194.681 30.872C193.603 31.2027 192.462 31.368 191.257 31.368C189.731 31.368 188.43 31.1493 187.353 30.712C186.286 30.264 185.39 29.7253 184.664 29.096L186.201 27.32C186.862 27.864 187.619 28.3067 188.473 28.648C189.337 28.9787 190.265 29.144 191.257 29.144Z" fill="#CECECE"/>
<rect x="210" y="19.5" width="416" height="1" fill="#80CE87"/>
</svg>
