<svg width="84" height="28" viewBox="0 0 84 28" fill="none" xmlns="http://www.w3.org/2000/svg">
<path d="M3.12 28H2.12V29H3.12V28ZM3.12 0.399998V-0.600002H2.12V0.399998H3.12ZM10.08 0.399998H11.08V-0.600002H10.08V0.399998ZM10.08 9.68H9.08V12.2934L10.8246 10.3475L10.08 9.68ZM18.4 0.399998V-0.600002H17.9535L17.6554 -0.267547L18.4 0.399998ZM24.96 0.399998L25.8648 -0.0257996L25.5946 -0.600002H24.96V0.399998ZM25.6 1.76L26.3448 2.42732L26.787 1.93379L26.5048 1.3342L25.6 1.76ZM16.64 11.76L15.8952 11.0927L15.3761 11.6721L15.81 12.3178L16.64 11.76ZM26.64 26.64L27.5448 27.0658L27.7862 26.5528L27.47 26.0822L26.64 26.64ZM26 28V29H26.6346L26.9048 28.4258L26 28ZM19.6 28L18.767 28.5533L19.0638 29H19.6V28ZM12.16 16.8L12.993 16.2467L12.3037 15.2091L11.4397 16.1064L12.16 16.8ZM10.08 18.96L9.35968 18.2664L9.08 18.5568V18.96H10.08ZM10.08 28V29H11.08V28H10.08ZM4.12 28V0.399998H2.12V28H4.12ZM3.12 1.4H10.08V-0.600002H3.12V1.4ZM9.08 0.399998V9.68H11.08V0.399998H9.08ZM10.8246 10.3475L19.1446 1.06754L17.6554 -0.267547L9.33543 9.01245L10.8246 10.3475ZM18.4 1.4H24.96V-0.600002H18.4V1.4ZM24.0552 0.825795L24.6952 2.1858L26.5048 1.3342L25.8648 -0.0257996L24.0552 0.825795ZM24.8552 1.09268L15.8952 11.0927L17.3848 12.4273L26.3448 2.42732L24.8552 1.09268ZM15.81 12.3178L25.81 27.1978L27.47 26.0822L17.47 11.2022L15.81 12.3178ZM25.7352 26.2142L25.0952 27.5742L26.9048 28.4258L27.5448 27.0658L25.7352 26.2142ZM26 27H19.6V29H26V27ZM20.433 27.4467L12.993 16.2467L11.327 17.3533L18.767 28.5533L20.433 27.4467ZM11.4397 16.1064L9.35968 18.2664L10.8003 19.6536L12.8803 17.4936L11.4397 16.1064ZM9.08 18.96V28H11.08V18.96H9.08ZM10.08 27H3.12V29H10.08V27Z" fill="#EFEFEF"/>
<path d="M40.46 21H37.18V7.14H40.46V21ZM40.56 13.6L44.35 7.14H47.79L43.87 13.36L48.17 21H44.37L40.56 13.6ZM54.9322 6.16V17.66C54.9322 18.0867 55.0522 18.3933 55.2922 18.58C55.5389 18.76 55.8755 18.85 56.3022 18.85C56.5755 18.85 56.8389 18.82 57.0922 18.76C57.3455 18.6933 57.5822 18.6167 57.8022 18.53L58.5622 20.64C58.2022 20.8267 57.7689 20.99 57.2622 21.13C56.7555 21.27 56.1655 21.34 55.4922 21.34C54.2122 21.34 53.2722 20.9733 52.6722 20.24C52.0722 19.5 51.7722 18.51 51.7722 17.27V8.32H48.6422V6.16H54.9322ZM64.1244 16.61C64.1977 17.19 64.3477 17.66 64.5744 18.02C64.8077 18.3733 65.1044 18.6333 65.4644 18.8C65.8244 18.96 66.2277 19.04 66.6744 19.04C67.161 19.04 67.631 18.96 68.0844 18.8C68.5377 18.64 68.9744 18.4267 69.3944 18.16L70.6644 19.88C70.1644 20.3067 69.5577 20.6567 68.8444 20.93C68.1377 21.2033 67.331 21.34 66.4244 21.34C65.211 21.34 64.1944 21.1 63.3744 20.62C62.5544 20.1333 61.9377 19.4667 61.5244 18.62C61.111 17.7733 60.9044 16.8 60.9044 15.7C60.9044 14.6533 61.1044 13.7033 61.5044 12.85C61.9044 11.99 62.4877 11.3067 63.2544 10.8C64.0277 10.2867 64.971 10.03 66.0844 10.03C67.0977 10.03 67.9744 10.2467 68.7144 10.68C69.461 11.1133 70.0377 11.7367 70.4444 12.55C70.8577 13.3633 71.0644 14.34 71.0644 15.48C71.0644 15.66 71.0577 15.8533 71.0444 16.06C71.0377 16.2667 71.0244 16.45 71.0044 16.61H64.1244ZM66.0844 12.15C65.5177 12.15 65.061 12.3533 64.7144 12.76C64.3677 13.1667 64.1577 13.8167 64.0844 14.71H67.9844C67.9777 13.9367 67.8277 13.3167 67.5344 12.85C67.241 12.3833 66.7577 12.15 66.0844 12.15ZM83.4166 10.38L79.8766 21C79.5632 21.94 79.1466 22.7267 78.6266 23.36C78.1132 24 77.4699 24.4933 76.6966 24.84C75.9299 25.1867 75.0066 25.39 73.9266 25.45L73.5666 23.22C74.2666 23.1333 74.8299 23.0033 75.2566 22.83C75.6899 22.6567 76.0366 22.42 76.2966 22.12C76.5632 21.8267 76.7932 21.4533 76.9866 21H75.9066L72.5366 10.38H75.8766L77.9366 18.98L80.1766 10.38H83.4166Z" fill="#EFEFEF"/>
</svg>
